<mxfile host="drawio-plugin" modified="2022-03-29T12:29:51.931Z" agent="5.0 (Windows NT 6.2; Win64; x64) AppleWebKit/537.36 (KHTML, like Gecko) Chrome/89.0.4389.114 Safari/537.36" etag="ZK8JNvaW-je_k36hjpQc" version="15.5.4" type="embed"><diagram id="23iRSUPoRavnBvh4doch" name="Page-1"><mxGraphModel dx="1342" dy="738" grid="1" gridSize="10" guides="1" tooltips="1" connect="1" arrows="1" fold="1" page="1" pageScale="1" pageWidth="827" pageHeight="1169" math="0" shadow="0"><root><mxCell id="0"/><mxCell id="1" parent="0"/><mxCell id="11" value="" style="edgeStyle=orthogonalEdgeStyle;rounded=0;orthogonalLoop=1;jettySize=auto;html=1;" edge="1" parent="1" source="9" target="10"><mxGeometry relative="1" as="geometry"/></mxCell><mxCell id="9" value="" style="ellipse;fillColor=#000000;strokeColor=none;" vertex="1" parent="1"><mxGeometry x="410.5" y="80" width="30" height="30" as="geometry"/></mxCell><mxCell id="16" value="" style="edgeStyle=orthogonalEdgeStyle;rounded=0;orthogonalLoop=1;jettySize=auto;html=1;" edge="1" parent="1" source="10" target="15"><mxGeometry relative="1" as="geometry"/></mxCell><mxCell id="10" value="Recherche un produit" style="rounded=1;whiteSpace=wrap;html=1;" vertex="1" parent="1"><mxGeometry x="290" y="170" width="271" height="80" as="geometry"/></mxCell><mxCell id="18" style="edgeStyle=orthogonalEdgeStyle;rounded=0;orthogonalLoop=1;jettySize=auto;html=1;exitX=1;exitY=0.5;exitDx=0;exitDy=0;entryX=1.002;entryY=0.415;entryDx=0;entryDy=0;entryPerimeter=0;" edge="1" parent="1" source="12" target="10"><mxGeometry relative="1" as="geometry"><mxPoint x="700" y="200" as="targetPoint"/><Array as="points"><mxPoint x="400" y="550"/><mxPoint x="720" y="550"/><mxPoint x="720" y="203"/></Array></mxGeometry></mxCell><mxCell id="22" style="edgeStyle=orthogonalEdgeStyle;rounded=0;orthogonalLoop=1;jettySize=auto;html=1;exitX=0.5;exitY=1;exitDx=0;exitDy=0;entryX=0.5;entryY=0;entryDx=0;entryDy=0;" edge="1" parent="1" source="12" target="21"><mxGeometry relative="1" as="geometry"/></mxCell><mxCell id="12" value="Ajoute au panier" style="rounded=1;whiteSpace=wrap;html=1;" vertex="1" parent="1"><mxGeometry x="280" y="525" width="120" height="60" as="geometry"/></mxCell><mxCell id="17" value="" style="edgeStyle=orthogonalEdgeStyle;rounded=0;orthogonalLoop=1;jettySize=auto;html=1;" edge="1" parent="1" source="15" target="12"><mxGeometry relative="1" as="geometry"/></mxCell><mxCell id="19" style="edgeStyle=orthogonalEdgeStyle;rounded=0;orthogonalLoop=1;jettySize=auto;html=1;entryX=0;entryY=0.5;entryDx=0;entryDy=0;" edge="1" parent="1" source="15" target="10"><mxGeometry relative="1" as="geometry"><mxPoint x="160" y="210" as="targetPoint"/><Array as="points"><mxPoint x="130" y="370"/><mxPoint x="130" y="210"/></Array></mxGeometry></mxCell><mxCell id="20" value="non disponible" style="edgeLabel;html=1;align=center;verticalAlign=middle;resizable=0;points=[];" vertex="1" connectable="0" parent="19"><mxGeometry x="0.2992" relative="1" as="geometry"><mxPoint y="-1" as="offset"/></mxGeometry></mxCell><mxCell id="15" value="vérification disponible" style="rhombus;" vertex="1" parent="1"><mxGeometry x="360.5" y="310" width="130" height="120" as="geometry"/></mxCell><mxCell id="24" style="edgeStyle=orthogonalEdgeStyle;rounded=0;orthogonalLoop=1;jettySize=auto;html=1;entryX=0.75;entryY=0;entryDx=0;entryDy=0;" edge="1" parent="1" source="21" target="23"><mxGeometry relative="1" as="geometry"/></mxCell><mxCell id="21" value="consulte le panier" style="rounded=1;whiteSpace=wrap;html=1;" vertex="1" parent="1"><mxGeometry x="520" y="650" width="130" height="60" as="geometry"/></mxCell><mxCell id="26" style="edgeStyle=orthogonalEdgeStyle;rounded=0;orthogonalLoop=1;jettySize=auto;html=1;exitX=0.5;exitY=1;exitDx=0;exitDy=0;" edge="1" parent="1" source="23" target="25"><mxGeometry relative="1" as="geometry"><Array as="points"><mxPoint x="330" y="800"/><mxPoint x="350" y="800"/></Array></mxGeometry></mxCell><mxCell id="54" style="edgeStyle=orthogonalEdgeStyle;rounded=0;orthogonalLoop=1;jettySize=auto;html=1;strokeWidth=2;" edge="1" parent="1" source="23" target="27"><mxGeometry relative="1" as="geometry"><Array as="points"><mxPoint x="330" y="800"/><mxPoint x="720" y="800"/></Array></mxGeometry></mxCell><mxCell id="23" value="valide le panier" style="rounded=1;whiteSpace=wrap;html=1;" vertex="1" parent="1"><mxGeometry x="270" y="700" width="120" height="60" as="geometry"/></mxCell><mxCell id="33" style="edgeStyle=orthogonalEdgeStyle;rounded=0;orthogonalLoop=1;jettySize=auto;html=1;" edge="1" parent="1" source="25" target="32"><mxGeometry relative="1" as="geometry"/></mxCell><mxCell id="25" value="connexion" style="rounded=1;whiteSpace=wrap;html=1;" vertex="1" parent="1"><mxGeometry x="290" y="850" width="120" height="60" as="geometry"/></mxCell><mxCell id="30" value="" style="edgeStyle=orthogonalEdgeStyle;rounded=0;orthogonalLoop=1;jettySize=auto;html=1;" edge="1" parent="1" source="27" target="29"><mxGeometry relative="1" as="geometry"/></mxCell><mxCell id="27" value="inscription" style="rounded=0;whiteSpace=wrap;html=1;" vertex="1" parent="1"><mxGeometry x="660" y="850" width="120" height="60" as="geometry"/></mxCell><mxCell id="31" style="edgeStyle=orthogonalEdgeStyle;rounded=0;orthogonalLoop=1;jettySize=auto;html=1;exitX=0;exitY=0.5;exitDx=0;exitDy=0;entryX=1;entryY=0.5;entryDx=0;entryDy=0;" edge="1" parent="1" source="29" target="25"><mxGeometry relative="1" as="geometry"/></mxCell><mxCell id="29" value="vérification email" style="whiteSpace=wrap;html=1;rounded=0;" vertex="1" parent="1"><mxGeometry x="460" y="850" width="120" height="60" as="geometry"/></mxCell><mxCell id="36" style="edgeStyle=orthogonalEdgeStyle;rounded=0;orthogonalLoop=1;jettySize=auto;html=1;" edge="1" parent="1" source="32" target="35"><mxGeometry relative="1" as="geometry"/></mxCell><mxCell id="32" value="information livraison" style="rounded=1;whiteSpace=wrap;html=1;" vertex="1" parent="1"><mxGeometry x="90" y="990" width="110" height="60" as="geometry"/></mxCell><mxCell id="39" style="edgeStyle=orthogonalEdgeStyle;rounded=0;orthogonalLoop=1;jettySize=auto;html=1;strokeWidth=10;" edge="1" parent="1" source="35"><mxGeometry relative="1" as="geometry"><mxPoint x="360" y="1110" as="targetPoint"/></mxGeometry></mxCell><mxCell id="35" value="validation paiement" style="rounded=1;whiteSpace=wrap;html=1;" vertex="1" parent="1"><mxGeometry x="300" y="990" width="120" height="60" as="geometry"/></mxCell><mxCell id="38" value="" style="endArrow=none;html=1;rounded=0;strokeWidth=10;" edge="1" parent="1"><mxGeometry width="50" height="50" relative="1" as="geometry"><mxPoint x="210" y="1120" as="sourcePoint"/><mxPoint x="700" y="1120" as="targetPoint"/></mxGeometry></mxCell><mxCell id="41" value="" style="endArrow=open;startArrow=none;endFill=0;startFill=0;endSize=8;html=1;verticalAlign=bottom;labelBackgroundColor=none;strokeWidth=1;rounded=0;entryX=0.444;entryY=-0.065;entryDx=0;entryDy=0;entryPerimeter=0;" edge="1" parent="1" target="43"><mxGeometry width="160" relative="1" as="geometry"><mxPoint x="283" y="1120" as="sourcePoint"/><mxPoint x="280" y="1230" as="targetPoint"/></mxGeometry></mxCell><mxCell id="42" value="" style="endArrow=open;startArrow=none;endFill=0;startFill=0;endSize=8;html=1;verticalAlign=bottom;labelBackgroundColor=none;strokeWidth=1;rounded=0;" edge="1" parent="1"><mxGeometry width="160" relative="1" as="geometry"><mxPoint x="570" y="1120" as="sourcePoint"/><mxPoint x="570" y="1240" as="targetPoint"/></mxGeometry></mxCell><mxCell id="46" style="edgeStyle=orthogonalEdgeStyle;rounded=0;orthogonalLoop=1;jettySize=auto;html=1;strokeWidth=10;" edge="1" parent="1" source="43"><mxGeometry relative="1" as="geometry"><mxPoint x="290" y="1430" as="targetPoint"/></mxGeometry></mxCell><mxCell id="43" value="mail de confirmation" style="rounded=1;whiteSpace=wrap;html=1;" vertex="1" parent="1"><mxGeometry x="230" y="1240" width="120" height="60" as="geometry"/></mxCell><mxCell id="47" style="edgeStyle=orthogonalEdgeStyle;rounded=0;orthogonalLoop=1;jettySize=auto;html=1;strokeWidth=10;" edge="1" parent="1" source="44"><mxGeometry relative="1" as="geometry"><mxPoint x="560" y="1430" as="targetPoint"/></mxGeometry></mxCell><mxCell id="44" value="facture" style="rounded=1;whiteSpace=wrap;html=1;" vertex="1" parent="1"><mxGeometry x="500" y="1240" width="120" height="60" as="geometry"/></mxCell><mxCell id="45" value="" style="endArrow=none;html=1;rounded=0;strokeWidth=10;" edge="1" parent="1"><mxGeometry width="50" height="50" relative="1" as="geometry"><mxPoint x="211" y="1440" as="sourcePoint"/><mxPoint x="700" y="1440" as="targetPoint"/></mxGeometry></mxCell><mxCell id="53" style="edgeStyle=orthogonalEdgeStyle;rounded=0;orthogonalLoop=1;jettySize=auto;html=1;entryX=0;entryY=0;entryDx=0;entryDy=0;strokeWidth=2;" edge="1" parent="1" source="50" target="52"><mxGeometry relative="1" as="geometry"><Array as="points"><mxPoint x="414" y="1864"/></Array></mxGeometry></mxCell><mxCell id="50" value="Retour à l'accueil" style="rounded=1;whiteSpace=wrap;html=1;" vertex="1" parent="1"><mxGeometry x="354" y="1590" width="120" height="60" as="geometry"/></mxCell><mxCell id="51" value="" style="endArrow=classic;html=1;rounded=0;strokeWidth=2;" edge="1" parent="1" target="50"><mxGeometry width="50" height="50" relative="1" as="geometry"><mxPoint x="414" y="1450" as="sourcePoint"/><mxPoint x="470" y="1350" as="targetPoint"/><Array as="points"/></mxGeometry></mxCell><mxCell id="52" value="" style="ellipse;html=1;shape=endState;fillColor=#000000;strokeColor=#000000;" vertex="1" parent="1"><mxGeometry x="399" y="1860" width="30" height="30" as="geometry"/></mxCell></root></mxGraphModel></diagram></mxfile>